G04 start of page 12 for group -3984 idx -3984 *
G04 Title: (unknown), fab *
G04 Creator: pcb 20110918 *
G04 CreationDate: Thu 09 Jun 2016 12:54:50 AM GMT UTC *
G04 For: railfan *
G04 Format: Gerber/RS-274X *
G04 PCB-Dimensions: 97614 89800 *
G04 PCB-Coordinate-Origin: lower left *
%MOIN*%
%FSLAX25Y25*%
%LNFAB*%
%ADD28C,0.0100*%
%ADD27C,0.0075*%
%ADD26C,0.0060*%
%ADD25C,0.0080*%
G54D25*X5500Y80300D02*Y78700D01*
Y80300D02*X6887Y81100D01*
X5500Y80300D02*X4113Y81100D01*
X5500Y72426D02*Y70826D01*
Y72426D02*X6887Y73226D01*
X5500Y72426D02*X4113Y73226D01*
X5500Y64552D02*Y62952D01*
Y64552D02*X6887Y65352D01*
X5500Y64552D02*X4113Y65352D01*
X5500Y56678D02*Y55078D01*
Y56678D02*X6887Y57478D01*
X5500Y56678D02*X4113Y57478D01*
X5500Y48804D02*Y47204D01*
Y48804D02*X6887Y49604D01*
X5500Y48804D02*X4113Y49604D01*
X5500Y40930D02*Y39330D01*
Y40930D02*X6887Y41730D01*
X5500Y40930D02*X4113Y41730D01*
X5500Y33056D02*Y31456D01*
Y33056D02*X6887Y33856D01*
X5500Y33056D02*X4113Y33856D01*
X5500Y25182D02*Y23582D01*
Y25182D02*X6887Y25982D01*
X5500Y25182D02*X4113Y25982D01*
X5500Y17308D02*Y15708D01*
Y17308D02*X6887Y18108D01*
X5500Y17308D02*X4113Y18108D01*
X5500Y9434D02*Y7834D01*
Y9434D02*X6887Y10234D01*
X5500Y9434D02*X4113Y10234D01*
X92114Y80300D02*Y78700D01*
Y80300D02*X93501Y81100D01*
X92114Y80300D02*X90727Y81100D01*
X92114Y72426D02*Y70826D01*
Y72426D02*X93501Y73226D01*
X92114Y72426D02*X90727Y73226D01*
X92114Y64552D02*Y62952D01*
Y64552D02*X93501Y65352D01*
X92114Y64552D02*X90727Y65352D01*
X92114Y56678D02*Y55078D01*
Y56678D02*X93501Y57478D01*
X92114Y56678D02*X90727Y57478D01*
X92114Y48804D02*Y47204D01*
Y48804D02*X93501Y49604D01*
X92114Y48804D02*X90727Y49604D01*
X92114Y40930D02*Y39330D01*
Y40930D02*X93501Y41730D01*
X92114Y40930D02*X90727Y41730D01*
X92114Y33056D02*Y31456D01*
Y33056D02*X93501Y33856D01*
X92114Y33056D02*X90727Y33856D01*
X92114Y25182D02*Y23582D01*
Y25182D02*X93501Y25982D01*
X92114Y25182D02*X90727Y25982D01*
X92114Y17308D02*Y15708D01*
Y17308D02*X93501Y18108D01*
X92114Y17308D02*X90727Y18108D01*
X92114Y9434D02*Y7834D01*
Y9434D02*X93501Y10234D01*
X92114Y9434D02*X90727Y10234D01*
X15000Y146050D02*Y144450D01*
Y146050D02*X16387Y146850D01*
X15000Y146050D02*X13613Y146850D01*
G54D26*X135000Y148300D02*X136500Y145300D01*
X138000Y148300D01*
X136500Y145300D02*Y142300D01*
X139800Y145600D02*X142050D01*
X139800Y142300D02*X142800D01*
X139800Y148300D02*Y142300D01*
Y148300D02*X142800D01*
X147600D02*X148350Y147550D01*
X145350Y148300D02*X147600D01*
X144600Y147550D02*X145350Y148300D01*
X144600Y147550D02*Y146050D01*
X145350Y145300D01*
X147600D01*
X148350Y144550D01*
Y143050D01*
X147600Y142300D02*X148350Y143050D01*
X145350Y142300D02*X147600D01*
X144600Y143050D02*X145350Y142300D01*
X98000Y147550D02*X98750Y148300D01*
X101000D01*
X101750Y147550D01*
Y146050D01*
X98000Y142300D02*X101750Y146050D01*
X98000Y142300D02*X101750D01*
X103550Y143050D02*X104300Y142300D01*
X103550Y147550D02*Y143050D01*
Y147550D02*X104300Y148300D01*
X105800D01*
X106550Y147550D01*
Y143050D01*
X105800Y142300D02*X106550Y143050D01*
X104300Y142300D02*X105800D01*
X103550Y143800D02*X106550Y146800D01*
X45000Y143050D02*X45750Y142300D01*
X45000Y147550D02*Y143050D01*
Y147550D02*X45750Y148300D01*
X47250D01*
X48000Y147550D01*
Y143050D01*
X47250Y142300D02*X48000Y143050D01*
X45750Y142300D02*X47250D01*
X45000Y143800D02*X48000Y146800D01*
X49800Y142300D02*X50550D01*
X52350Y143050D02*X53100Y142300D01*
X52350Y147550D02*Y143050D01*
Y147550D02*X53100Y148300D01*
X54600D01*
X55350Y147550D01*
Y143050D01*
X54600Y142300D02*X55350Y143050D01*
X53100Y142300D02*X54600D01*
X52350Y143800D02*X55350Y146800D01*
X57150Y147550D02*X57900Y148300D01*
X59400D01*
X60150Y147550D01*
X59400Y142300D02*X60150Y143050D01*
X57900Y142300D02*X59400D01*
X57150Y143050D02*X57900Y142300D01*
Y145600D02*X59400D01*
X60150Y147550D02*Y146350D01*
Y144850D02*Y143050D01*
Y144850D02*X59400Y145600D01*
X60150Y146350D02*X59400Y145600D01*
X61950Y147550D02*X62700Y148300D01*
X64950D01*
X65700Y147550D01*
Y146050D01*
X61950Y142300D02*X65700Y146050D01*
X61950Y142300D02*X65700D01*
X3000Y163300D02*X3750Y162550D01*
X750Y163300D02*X3000D01*
X0Y162550D02*X750Y163300D01*
X0Y162550D02*Y161050D01*
X750Y160300D01*
X3000D01*
X3750Y159550D01*
Y158050D01*
X3000Y157300D02*X3750Y158050D01*
X750Y157300D02*X3000D01*
X0Y158050D02*X750Y157300D01*
X5550Y160300D02*Y158050D01*
X6300Y157300D01*
X8550Y160300D02*Y155800D01*
X7800Y155050D02*X8550Y155800D01*
X6300Y155050D02*X7800D01*
X5550Y155800D02*X6300Y155050D01*
Y157300D02*X7800D01*
X8550Y158050D01*
X11100Y159550D02*Y157300D01*
Y159550D02*X11850Y160300D01*
X12600D01*
X13350Y159550D01*
Y157300D01*
Y159550D02*X14100Y160300D01*
X14850D01*
X15600Y159550D01*
Y157300D01*
X10350Y160300D02*X11100Y159550D01*
X17400Y163300D02*Y157300D01*
Y158050D02*X18150Y157300D01*
X19650D01*
X20400Y158050D01*
Y159550D02*Y158050D01*
X19650Y160300D02*X20400Y159550D01*
X18150Y160300D02*X19650D01*
X17400Y159550D02*X18150Y160300D01*
X22200Y159550D02*Y158050D01*
Y159550D02*X22950Y160300D01*
X24450D01*
X25200Y159550D01*
Y158050D01*
X24450Y157300D02*X25200Y158050D01*
X22950Y157300D02*X24450D01*
X22200Y158050D02*X22950Y157300D01*
X27000Y163300D02*Y158050D01*
X27750Y157300D01*
X0Y154050D02*X29250D01*
X41750Y163300D02*Y157300D01*
X43700Y163300D02*X44750Y162250D01*
Y158350D01*
X43700Y157300D02*X44750Y158350D01*
X41000Y157300D02*X43700D01*
X41000Y163300D02*X43700D01*
G54D27*X46550Y161800D02*Y161650D01*
G54D26*Y159550D02*Y157300D01*
X50300Y160300D02*X51050Y159550D01*
X48800Y160300D02*X50300D01*
X48050Y159550D02*X48800Y160300D01*
X48050Y159550D02*Y158050D01*
X48800Y157300D01*
X51050Y160300D02*Y158050D01*
X51800Y157300D01*
X48800D02*X50300D01*
X51050Y158050D01*
X54350Y159550D02*Y157300D01*
Y159550D02*X55100Y160300D01*
X55850D01*
X56600Y159550D01*
Y157300D01*
Y159550D02*X57350Y160300D01*
X58100D01*
X58850Y159550D01*
Y157300D01*
X53600Y160300D02*X54350Y159550D01*
X60650Y157300D02*X61400D01*
X65900Y158050D02*X66650Y157300D01*
X65900Y162550D02*X66650Y163300D01*
X65900Y162550D02*Y158050D01*
X68450Y163300D02*X69950D01*
X69200D02*Y157300D01*
X68450D02*X69950D01*
X72500Y159550D02*Y157300D01*
Y159550D02*X73250Y160300D01*
X74000D01*
X74750Y159550D01*
Y157300D01*
X71750Y160300D02*X72500Y159550D01*
X77300Y160300D02*X79550D01*
X76550Y159550D02*X77300Y160300D01*
X76550Y159550D02*Y158050D01*
X77300Y157300D01*
X79550D01*
X81350Y163300D02*Y157300D01*
Y159550D02*X82100Y160300D01*
X83600D01*
X84350Y159550D01*
Y157300D01*
X86150Y163300D02*X86900Y162550D01*
Y158050D01*
X86150Y157300D02*X86900Y158050D01*
X41000Y154050D02*X88700D01*
X96050Y157300D02*X98000D01*
X95000Y158350D02*X96050Y157300D01*
X95000Y162250D02*Y158350D01*
Y162250D02*X96050Y163300D01*
X98000D01*
X99800Y159550D02*Y158050D01*
Y159550D02*X100550Y160300D01*
X102050D01*
X102800Y159550D01*
Y158050D01*
X102050Y157300D02*X102800Y158050D01*
X100550Y157300D02*X102050D01*
X99800Y158050D02*X100550Y157300D01*
X104600Y160300D02*Y158050D01*
X105350Y157300D01*
X106850D01*
X107600Y158050D01*
Y160300D02*Y158050D01*
X110150Y159550D02*Y157300D01*
Y159550D02*X110900Y160300D01*
X111650D01*
X112400Y159550D01*
Y157300D01*
X109400Y160300D02*X110150Y159550D01*
X114950Y163300D02*Y158050D01*
X115700Y157300D01*
X114200Y161050D02*X115700D01*
X95000Y154050D02*X117200D01*
X130750Y163300D02*Y157300D01*
X130000Y163300D02*X133000D01*
X133750Y162550D01*
Y161050D01*
X133000Y160300D02*X133750Y161050D01*
X130750Y160300D02*X133000D01*
X135550Y163300D02*Y158050D01*
X136300Y157300D01*
X140050Y160300D02*X140800Y159550D01*
X138550Y160300D02*X140050D01*
X137800Y159550D02*X138550Y160300D01*
X137800Y159550D02*Y158050D01*
X138550Y157300D01*
X140800Y160300D02*Y158050D01*
X141550Y157300D01*
X138550D02*X140050D01*
X140800Y158050D01*
X144100Y163300D02*Y158050D01*
X144850Y157300D01*
X143350Y161050D02*X144850D01*
X147100Y157300D02*X149350D01*
X146350Y158050D02*X147100Y157300D01*
X146350Y159550D02*Y158050D01*
Y159550D02*X147100Y160300D01*
X148600D01*
X149350Y159550D01*
X146350Y158800D02*X149350D01*
Y159550D02*Y158800D01*
X154150Y163300D02*Y157300D01*
X153400D02*X154150Y158050D01*
X151900Y157300D02*X153400D01*
X151150Y158050D02*X151900Y157300D01*
X151150Y159550D02*Y158050D01*
Y159550D02*X151900Y160300D01*
X153400D01*
X154150Y159550D01*
X157450Y160300D02*Y159550D01*
Y158050D02*Y157300D01*
X155950Y162550D02*Y161800D01*
Y162550D02*X156700Y163300D01*
X158200D01*
X158950Y162550D01*
Y161800D01*
X157450Y160300D02*X158950Y161800D01*
X130000Y154050D02*X160750D01*
X0Y178300D02*X3000D01*
X1500D02*Y172300D01*
X4800Y178300D02*Y172300D01*
Y174550D02*X5550Y175300D01*
X7050D01*
X7800Y174550D01*
Y172300D01*
X10350D02*X12600D01*
X9600Y173050D02*X10350Y172300D01*
X9600Y174550D02*Y173050D01*
Y174550D02*X10350Y175300D01*
X11850D01*
X12600Y174550D01*
X9600Y173800D02*X12600D01*
Y174550D02*Y173800D01*
X15150Y174550D02*Y172300D01*
Y174550D02*X15900Y175300D01*
X17400D01*
X14400D02*X15150Y174550D01*
X19950Y172300D02*X22200D01*
X19200Y173050D02*X19950Y172300D01*
X19200Y174550D02*Y173050D01*
Y174550D02*X19950Y175300D01*
X21450D01*
X22200Y174550D01*
X19200Y173800D02*X22200D01*
Y174550D02*Y173800D01*
X28950Y175300D02*X29700Y174550D01*
X27450Y175300D02*X28950D01*
X26700Y174550D02*X27450Y175300D01*
X26700Y174550D02*Y173050D01*
X27450Y172300D01*
X29700Y175300D02*Y173050D01*
X30450Y172300D01*
X27450D02*X28950D01*
X29700Y173050D01*
X33000Y174550D02*Y172300D01*
Y174550D02*X33750Y175300D01*
X35250D01*
X32250D02*X33000Y174550D01*
X37800Y172300D02*X40050D01*
X37050Y173050D02*X37800Y172300D01*
X37050Y174550D02*Y173050D01*
Y174550D02*X37800Y175300D01*
X39300D01*
X40050Y174550D01*
X37050Y173800D02*X40050D01*
Y174550D02*Y173800D01*
X44550Y177100D02*X45750Y178300D01*
Y172300D01*
X44550D02*X46800D01*
X54300Y178300D02*Y172300D01*
X53550D02*X54300Y173050D01*
X52050Y172300D02*X53550D01*
X51300Y173050D02*X52050Y172300D01*
X51300Y174550D02*Y173050D01*
Y174550D02*X52050Y175300D01*
X53550D01*
X54300Y174550D01*
G54D27*X56100Y176800D02*Y176650D01*
G54D26*Y174550D02*Y172300D01*
X58350Y177550D02*Y172300D01*
Y177550D02*X59100Y178300D01*
X59850D01*
X57600Y175300D02*X59100D01*
X62100Y177550D02*Y172300D01*
Y177550D02*X62850Y178300D01*
X63600D01*
X61350Y175300D02*X62850D01*
X65850Y172300D02*X68100D01*
X65100Y173050D02*X65850Y172300D01*
X65100Y174550D02*Y173050D01*
Y174550D02*X65850Y175300D01*
X67350D01*
X68100Y174550D01*
X65100Y173800D02*X68100D01*
Y174550D02*Y173800D01*
X70650Y174550D02*Y172300D01*
Y174550D02*X71400Y175300D01*
X72900D01*
X69900D02*X70650Y174550D01*
X75450Y172300D02*X77700D01*
X74700Y173050D02*X75450Y172300D01*
X74700Y174550D02*Y173050D01*
Y174550D02*X75450Y175300D01*
X76950D01*
X77700Y174550D01*
X74700Y173800D02*X77700D01*
Y174550D02*Y173800D01*
X80250Y174550D02*Y172300D01*
Y174550D02*X81000Y175300D01*
X81750D01*
X82500Y174550D01*
Y172300D01*
X79500Y175300D02*X80250Y174550D01*
X85050Y178300D02*Y173050D01*
X85800Y172300D01*
X84300Y176050D02*X85800D01*
X93000Y178300D02*Y172300D01*
X92250D02*X93000Y173050D01*
X90750Y172300D02*X92250D01*
X90000Y173050D02*X90750Y172300D01*
X90000Y174550D02*Y173050D01*
Y174550D02*X90750Y175300D01*
X92250D01*
X93000Y174550D01*
X95550D02*Y172300D01*
Y174550D02*X96300Y175300D01*
X97800D01*
X94800D02*X95550Y174550D01*
G54D27*X99600Y176800D02*Y176650D01*
G54D26*Y174550D02*Y172300D01*
X101100Y178300D02*Y173050D01*
X101850Y172300D01*
X103350Y178300D02*Y173050D01*
X104100Y172300D01*
X109050D02*X111300D01*
X112050Y173050D01*
X111300Y173800D02*X112050Y173050D01*
X109050Y173800D02*X111300D01*
X108300Y174550D02*X109050Y173800D01*
X108300Y174550D02*X109050Y175300D01*
X111300D01*
X112050Y174550D01*
X108300Y173050D02*X109050Y172300D01*
G54D27*X113850Y176800D02*Y176650D01*
G54D26*Y174550D02*Y172300D01*
X115350Y175300D02*X118350D01*
X115350Y172300D02*X118350Y175300D01*
X115350Y172300D02*X118350D01*
X120900D02*X123150D01*
X120150Y173050D02*X120900Y172300D01*
X120150Y174550D02*Y173050D01*
Y174550D02*X120900Y175300D01*
X122400D01*
X123150Y174550D01*
X120150Y173800D02*X123150D01*
Y174550D02*Y173800D01*
X125700Y172300D02*X127950D01*
X128700Y173050D01*
X127950Y173800D02*X128700Y173050D01*
X125700Y173800D02*X127950D01*
X124950Y174550D02*X125700Y173800D01*
X124950Y174550D02*X125700Y175300D01*
X127950D01*
X128700Y174550D01*
X124950Y173050D02*X125700Y172300D01*
X133200Y175300D02*Y173050D01*
X133950Y172300D01*
X135450D01*
X136200Y173050D01*
Y175300D02*Y173050D01*
X138750Y172300D02*X141000D01*
X141750Y173050D01*
X141000Y173800D02*X141750Y173050D01*
X138750Y173800D02*X141000D01*
X138000Y174550D02*X138750Y173800D01*
X138000Y174550D02*X138750Y175300D01*
X141000D01*
X141750Y174550D01*
X138000Y173050D02*X138750Y172300D01*
X144300D02*X146550D01*
X143550Y173050D02*X144300Y172300D01*
X143550Y174550D02*Y173050D01*
Y174550D02*X144300Y175300D01*
X145800D01*
X146550Y174550D01*
X143550Y173800D02*X146550D01*
Y174550D02*Y173800D01*
X151350Y178300D02*Y172300D01*
X150600D02*X151350Y173050D01*
X149100Y172300D02*X150600D01*
X148350Y173050D02*X149100Y172300D01*
X148350Y174550D02*Y173050D01*
Y174550D02*X149100Y175300D01*
X150600D01*
X151350Y174550D01*
G54D27*X155850Y176800D02*Y176650D01*
G54D26*Y174550D02*Y172300D01*
X158100Y174550D02*Y172300D01*
Y174550D02*X158850Y175300D01*
X159600D01*
X160350Y174550D01*
Y172300D01*
X157350Y175300D02*X158100Y174550D01*
X165600Y178300D02*Y173050D01*
X166350Y172300D01*
X164850Y176050D02*X166350D01*
X167850Y178300D02*Y172300D01*
Y174550D02*X168600Y175300D01*
X170100D01*
X170850Y174550D01*
Y172300D01*
G54D27*X172650Y176800D02*Y176650D01*
G54D26*Y174550D02*Y172300D01*
X174900D02*X177150D01*
X177900Y173050D01*
X177150Y173800D02*X177900Y173050D01*
X174900Y173800D02*X177150D01*
X174150Y174550D02*X174900Y173800D01*
X174150Y174550D02*X174900Y175300D01*
X177150D01*
X177900Y174550D01*
X174150Y173050D02*X174900Y172300D01*
X182400Y178300D02*Y173050D01*
X183150Y172300D01*
X186900Y175300D02*X187650Y174550D01*
X185400Y175300D02*X186900D01*
X184650Y174550D02*X185400Y175300D01*
X184650Y174550D02*Y173050D01*
X185400Y172300D01*
X187650Y175300D02*Y173050D01*
X188400Y172300D01*
X185400D02*X186900D01*
X187650Y173050D01*
X190200Y175300D02*Y173050D01*
X190950Y172300D01*
X193200Y175300D02*Y170800D01*
X192450Y170050D02*X193200Y170800D01*
X190950Y170050D02*X192450D01*
X190200Y170800D02*X190950Y170050D01*
Y172300D02*X192450D01*
X193200Y173050D01*
X195000Y174550D02*Y173050D01*
Y174550D02*X195750Y175300D01*
X197250D01*
X198000Y174550D01*
Y173050D01*
X197250Y172300D02*X198000Y173050D01*
X195750Y172300D02*X197250D01*
X195000Y173050D02*X195750Y172300D01*
X199800Y175300D02*Y173050D01*
X200550Y172300D01*
X202050D01*
X202800Y173050D01*
Y175300D02*Y173050D01*
X205350Y178300D02*Y173050D01*
X206100Y172300D01*
X204600Y176050D02*X206100D01*
X207600Y170800D02*X209100Y172300D01*
X213600Y177550D02*X214350Y178300D01*
X216600D01*
X217350Y177550D01*
Y176050D01*
X213600Y172300D02*X217350Y176050D01*
X213600Y172300D02*X217350D01*
X219150Y173050D02*X219900Y172300D01*
X219150Y177550D02*Y173050D01*
Y177550D02*X219900Y178300D01*
X221400D01*
X222150Y177550D01*
Y173050D01*
X221400Y172300D02*X222150Y173050D01*
X219900Y172300D02*X221400D01*
X219150Y173800D02*X222150Y176800D01*
X226650Y178300D02*Y172300D01*
Y174550D02*X227400Y175300D01*
X228900D01*
X229650Y174550D01*
Y172300D01*
X231450Y174550D02*Y173050D01*
Y174550D02*X232200Y175300D01*
X233700D01*
X234450Y174550D01*
Y173050D01*
X233700Y172300D02*X234450Y173050D01*
X232200Y172300D02*X233700D01*
X231450Y173050D02*X232200Y172300D01*
X236250Y178300D02*Y173050D01*
X237000Y172300D01*
X239250D02*X241500D01*
X238500Y173050D02*X239250Y172300D01*
X238500Y174550D02*Y173050D01*
Y174550D02*X239250Y175300D01*
X240750D01*
X241500Y174550D01*
X238500Y173800D02*X241500D01*
Y174550D02*Y173800D01*
X244050Y172300D02*X246300D01*
X247050Y173050D01*
X246300Y173800D02*X247050Y173050D01*
X244050Y173800D02*X246300D01*
X243300Y174550D02*X244050Y173800D01*
X243300Y174550D02*X244050Y175300D01*
X246300D01*
X247050Y174550D01*
X243300Y173050D02*X244050Y172300D01*
X252300Y178300D02*Y173050D01*
X253050Y172300D01*
X251550Y176050D02*X253050D01*
X254550Y174550D02*Y173050D01*
Y174550D02*X255300Y175300D01*
X256800D01*
X257550Y174550D01*
Y173050D01*
X256800Y172300D02*X257550Y173050D01*
X255300Y172300D02*X256800D01*
X254550Y173050D02*X255300Y172300D01*
X260100Y178300D02*Y173050D01*
X260850Y172300D01*
X259350Y176050D02*X260850D01*
X264600Y175300D02*X265350Y174550D01*
X263100Y175300D02*X264600D01*
X262350Y174550D02*X263100Y175300D01*
X262350Y174550D02*Y173050D01*
X263100Y172300D01*
X265350Y175300D02*Y173050D01*
X266100Y172300D01*
X263100D02*X264600D01*
X265350Y173050D01*
X267900Y178300D02*Y173050D01*
X268650Y172300D01*
G54D28*X0Y89800D02*X97614D01*
X0D02*Y0D01*
X97614Y89800D02*Y0D01*
X0D02*X97614D01*
G54D26*X200000Y103300D02*Y97300D01*
Y103300D02*X202250Y100300D01*
X204500Y103300D01*
Y97300D01*
X208550Y100300D02*X209300Y99550D01*
X207050Y100300D02*X208550D01*
X206300Y99550D02*X207050Y100300D01*
X206300Y99550D02*Y98050D01*
X207050Y97300D01*
X209300Y100300D02*Y98050D01*
X210050Y97300D01*
X207050D02*X208550D01*
X209300Y98050D01*
X211850Y100300D02*X214850Y97300D01*
X211850D02*X214850Y100300D01*
G54D27*X216650Y101800D02*Y101650D01*
G54D26*Y99550D02*Y97300D01*
X218900Y99550D02*Y97300D01*
Y99550D02*X219650Y100300D01*
X220400D01*
X221150Y99550D01*
Y97300D01*
Y99550D02*X221900Y100300D01*
X222650D01*
X223400Y99550D01*
Y97300D01*
X218150Y100300D02*X218900Y99550D01*
X225200Y100300D02*Y98050D01*
X225950Y97300D01*
X227450D01*
X228200Y98050D01*
Y100300D02*Y98050D01*
X230750Y99550D02*Y97300D01*
Y99550D02*X231500Y100300D01*
X232250D01*
X233000Y99550D01*
Y97300D01*
Y99550D02*X233750Y100300D01*
X234500D01*
X235250Y99550D01*
Y97300D01*
X230000Y100300D02*X230750Y99550D01*
X240500Y103300D02*Y97300D01*
X242450Y103300D02*X243500Y102250D01*
Y98350D01*
X242450Y97300D02*X243500Y98350D01*
X239750Y97300D02*X242450D01*
X239750Y103300D02*X242450D01*
G54D27*X245300Y101800D02*Y101650D01*
G54D26*Y99550D02*Y97300D01*
X247550Y99550D02*Y97300D01*
Y99550D02*X248300Y100300D01*
X249050D01*
X249800Y99550D01*
Y97300D01*
Y99550D02*X250550Y100300D01*
X251300D01*
X252050Y99550D01*
Y97300D01*
X246800Y100300D02*X247550Y99550D01*
X254600Y97300D02*X256850D01*
X253850Y98050D02*X254600Y97300D01*
X253850Y99550D02*Y98050D01*
Y99550D02*X254600Y100300D01*
X256100D01*
X256850Y99550D01*
X253850Y98800D02*X256850D01*
Y99550D02*Y98800D01*
X259400Y99550D02*Y97300D01*
Y99550D02*X260150Y100300D01*
X260900D01*
X261650Y99550D01*
Y97300D01*
X258650Y100300D02*X259400Y99550D01*
X264200Y97300D02*X266450D01*
X267200Y98050D01*
X266450Y98800D02*X267200Y98050D01*
X264200Y98800D02*X266450D01*
X263450Y99550D02*X264200Y98800D01*
X263450Y99550D02*X264200Y100300D01*
X266450D01*
X267200Y99550D01*
X263450Y98050D02*X264200Y97300D01*
G54D27*X269000Y101800D02*Y101650D01*
G54D26*Y99550D02*Y97300D01*
X270500Y99550D02*Y98050D01*
Y99550D02*X271250Y100300D01*
X272750D01*
X273500Y99550D01*
Y98050D01*
X272750Y97300D02*X273500Y98050D01*
X271250Y97300D02*X272750D01*
X270500Y98050D02*X271250Y97300D01*
X276050Y99550D02*Y97300D01*
Y99550D02*X276800Y100300D01*
X277550D01*
X278300Y99550D01*
Y97300D01*
X275300Y100300D02*X276050Y99550D01*
X280850Y97300D02*X283100D01*
X283850Y98050D01*
X283100Y98800D02*X283850Y98050D01*
X280850Y98800D02*X283100D01*
X280100Y99550D02*X280850Y98800D01*
X280100Y99550D02*X280850Y100300D01*
X283100D01*
X283850Y99550D01*
X280100Y98050D02*X280850Y97300D01*
X285650Y101050D02*X286400D01*
X285650Y99550D02*X286400D01*
X291650Y97300D02*X293900Y100300D01*
Y102550D02*Y100300D01*
X293150Y103300D02*X293900Y102550D01*
X291650Y103300D02*X293150D01*
X290900Y102550D02*X291650Y103300D01*
X290900Y102550D02*Y101050D01*
X291650Y100300D01*
X293900D01*
X296450Y97300D02*X299450Y103300D01*
X295700D02*X299450D01*
X303500D02*X304250Y102550D01*
X302000Y103300D02*X303500D01*
X301250Y102550D02*X302000Y103300D01*
X301250Y102550D02*Y98050D01*
X302000Y97300D01*
X303500Y100600D02*X304250Y99850D01*
X301250Y100600D02*X303500D01*
X302000Y97300D02*X303500D01*
X304250Y98050D01*
Y99850D02*Y98050D01*
X306050Y97300D02*X306800D01*
X308600Y102100D02*X309800Y103300D01*
Y97300D01*
X308600D02*X310850D01*
X312650Y99550D02*X315650Y103300D01*
X312650Y99550D02*X316400D01*
X315650Y103300D02*Y97300D01*
X318200Y98050D02*X318950Y97300D01*
X318200Y102550D02*Y98050D01*
Y102550D02*X318950Y103300D01*
X320450D01*
X321200Y102550D01*
Y98050D01*
X320450Y97300D02*X321200Y98050D01*
X318950Y97300D02*X320450D01*
X318200Y98800D02*X321200Y101800D01*
X323000Y98050D02*X323750Y97300D01*
X323000Y102550D02*Y98050D01*
Y102550D02*X323750Y103300D01*
X325250D01*
X326000Y102550D01*
Y98050D01*
X325250Y97300D02*X326000Y98050D01*
X323750Y97300D02*X325250D01*
X323000Y98800D02*X326000Y101800D01*
X327800Y98050D02*X328550Y97300D01*
X327800Y102550D02*Y98050D01*
Y102550D02*X328550Y103300D01*
X330050D01*
X330800Y102550D01*
Y98050D01*
X330050Y97300D02*X330800Y98050D01*
X328550Y97300D02*X330050D01*
X327800Y98800D02*X330800Y101800D01*
X332600Y98050D02*X333350Y97300D01*
X332600Y102550D02*Y98050D01*
Y102550D02*X333350Y103300D01*
X334850D01*
X335600Y102550D01*
Y98050D01*
X334850Y97300D02*X335600Y98050D01*
X333350Y97300D02*X334850D01*
X332600Y98800D02*X335600Y101800D01*
X340850Y99550D02*Y97300D01*
Y99550D02*X341600Y100300D01*
X342350D01*
X343100Y99550D01*
Y97300D01*
Y99550D02*X343850Y100300D01*
X344600D01*
X345350Y99550D01*
Y97300D01*
X340100Y100300D02*X340850Y99550D01*
G54D27*X347150Y101800D02*Y101650D01*
G54D26*Y99550D02*Y97300D01*
X348650Y103300D02*Y98050D01*
X349400Y97300D01*
X351650D02*X353900D01*
X354650Y98050D01*
X353900Y98800D02*X354650Y98050D01*
X351650Y98800D02*X353900D01*
X350900Y99550D02*X351650Y98800D01*
X350900Y99550D02*X351650Y100300D01*
X353900D01*
X354650Y99550D01*
X350900Y98050D02*X351650Y97300D01*
X359150Y100300D02*Y98050D01*
X359900Y97300D01*
X360650D01*
X361400Y98050D01*
Y100300D02*Y98050D01*
X362150Y97300D01*
X362900D01*
X363650Y98050D01*
Y100300D02*Y98050D01*
G54D27*X365450Y101800D02*Y101650D01*
G54D26*Y99550D02*Y97300D01*
X369950Y103300D02*Y97300D01*
X369200D02*X369950Y98050D01*
X367700Y97300D02*X369200D01*
X366950Y98050D02*X367700Y97300D01*
X366950Y99550D02*Y98050D01*
Y99550D02*X367700Y100300D01*
X369200D01*
X369950Y99550D01*
X372500Y97300D02*X374750D01*
X371750Y98050D02*X372500Y97300D01*
X371750Y99550D02*Y98050D01*
Y99550D02*X372500Y100300D01*
X374000D01*
X374750Y99550D01*
X371750Y98800D02*X374750D01*
Y99550D02*Y98800D01*
X376550Y95800D02*X378050Y97300D01*
X382550Y98050D02*X383300Y97300D01*
X382550Y99250D02*Y98050D01*
Y99250D02*X383600Y100300D01*
X384500D01*
X385550Y99250D01*
Y98050D01*
X384800Y97300D02*X385550Y98050D01*
X383300Y97300D02*X384800D01*
X382550Y101350D02*X383600Y100300D01*
X382550Y102550D02*Y101350D01*
Y102550D02*X383300Y103300D01*
X384800D01*
X385550Y102550D01*
Y101350D01*
X384500Y100300D02*X385550Y101350D01*
X388100Y97300D02*X390350Y100300D01*
Y102550D02*Y100300D01*
X389600Y103300D02*X390350Y102550D01*
X388100Y103300D02*X389600D01*
X387350Y102550D02*X388100Y103300D01*
X387350Y102550D02*Y101050D01*
X388100Y100300D01*
X390350D01*
X392150Y98050D02*X392900Y97300D01*
X392150Y99250D02*Y98050D01*
Y99250D02*X393200Y100300D01*
X394100D01*
X395150Y99250D01*
Y98050D01*
X394400Y97300D02*X395150Y98050D01*
X392900Y97300D02*X394400D01*
X392150Y101350D02*X393200Y100300D01*
X392150Y102550D02*Y101350D01*
Y102550D02*X392900Y103300D01*
X394400D01*
X395150Y102550D01*
Y101350D01*
X394100Y100300D02*X395150Y101350D01*
X396950Y97300D02*X397700D01*
X399500Y98050D02*X400250Y97300D01*
X399500Y102550D02*Y98050D01*
Y102550D02*X400250Y103300D01*
X401750D01*
X402500Y102550D01*
Y98050D01*
X401750Y97300D02*X402500Y98050D01*
X400250Y97300D02*X401750D01*
X399500Y98800D02*X402500Y101800D01*
X404300Y98050D02*X405050Y97300D01*
X404300Y102550D02*Y98050D01*
Y102550D02*X405050Y103300D01*
X406550D01*
X407300Y102550D01*
Y98050D01*
X406550Y97300D02*X407300Y98050D01*
X405050Y97300D02*X406550D01*
X404300Y98800D02*X407300Y101800D01*
X409100Y98050D02*X409850Y97300D01*
X409100Y102550D02*Y98050D01*
Y102550D02*X409850Y103300D01*
X411350D01*
X412100Y102550D01*
Y98050D01*
X411350Y97300D02*X412100Y98050D01*
X409850Y97300D02*X411350D01*
X409100Y98800D02*X412100Y101800D01*
X413900Y98050D02*X414650Y97300D01*
X413900Y102550D02*Y98050D01*
Y102550D02*X414650Y103300D01*
X416150D01*
X416900Y102550D01*
Y98050D01*
X416150Y97300D02*X416900Y98050D01*
X414650Y97300D02*X416150D01*
X413900Y98800D02*X416900Y101800D01*
X418700Y98050D02*X419450Y97300D01*
X418700Y102550D02*Y98050D01*
Y102550D02*X419450Y103300D01*
X420950D01*
X421700Y102550D01*
Y98050D01*
X420950Y97300D02*X421700Y98050D01*
X419450Y97300D02*X420950D01*
X418700Y98800D02*X421700Y101800D01*
X423500Y98050D02*X424250Y97300D01*
X423500Y102550D02*Y98050D01*
Y102550D02*X424250Y103300D01*
X425750D01*
X426500Y102550D01*
Y98050D01*
X425750Y97300D02*X426500Y98050D01*
X424250Y97300D02*X425750D01*
X423500Y98800D02*X426500Y101800D01*
X431750Y99550D02*Y97300D01*
Y99550D02*X432500Y100300D01*
X433250D01*
X434000Y99550D01*
Y97300D01*
Y99550D02*X434750Y100300D01*
X435500D01*
X436250Y99550D01*
Y97300D01*
X431000Y100300D02*X431750Y99550D01*
G54D27*X438050Y101800D02*Y101650D01*
G54D26*Y99550D02*Y97300D01*
X439550Y103300D02*Y98050D01*
X440300Y97300D01*
X442550D02*X444800D01*
X445550Y98050D01*
X444800Y98800D02*X445550Y98050D01*
X442550Y98800D02*X444800D01*
X441800Y99550D02*X442550Y98800D01*
X441800Y99550D02*X442550Y100300D01*
X444800D01*
X445550Y99550D01*
X441800Y98050D02*X442550Y97300D01*
X450050Y103300D02*Y97300D01*
Y99550D02*X450800Y100300D01*
X452300D01*
X453050Y99550D01*
Y97300D01*
G54D27*X454850Y101800D02*Y101650D01*
G54D26*Y99550D02*Y97300D01*
X458600Y100300D02*X459350Y99550D01*
X457100Y100300D02*X458600D01*
X456350Y99550D02*X457100Y100300D01*
X456350Y99550D02*Y98050D01*
X457100Y97300D01*
X458600D01*
X459350Y98050D01*
X456350Y95800D02*X457100Y95050D01*
X458600D01*
X459350Y95800D01*
Y100300D02*Y95800D01*
X461150Y103300D02*Y97300D01*
Y99550D02*X461900Y100300D01*
X463400D01*
X464150Y99550D01*
Y97300D01*
X0Y-9500D02*X3000D01*
X3750Y-8750D01*
Y-6950D02*Y-8750D01*
X3000Y-6200D02*X3750Y-6950D01*
X750Y-6200D02*X3000D01*
X750Y-3500D02*Y-9500D01*
X0Y-3500D02*X3000D01*
X3750Y-4250D01*
Y-5450D01*
X3000Y-6200D02*X3750Y-5450D01*
X5550Y-7250D02*Y-8750D01*
Y-7250D02*X6300Y-6500D01*
X7800D01*
X8550Y-7250D01*
Y-8750D01*
X7800Y-9500D02*X8550Y-8750D01*
X6300Y-9500D02*X7800D01*
X5550Y-8750D02*X6300Y-9500D01*
X12600Y-6500D02*X13350Y-7250D01*
X11100Y-6500D02*X12600D01*
X10350Y-7250D02*X11100Y-6500D01*
X10350Y-7250D02*Y-8750D01*
X11100Y-9500D01*
X13350Y-6500D02*Y-8750D01*
X14100Y-9500D01*
X11100D02*X12600D01*
X13350Y-8750D01*
X16650Y-7250D02*Y-9500D01*
Y-7250D02*X17400Y-6500D01*
X18900D01*
X15900D02*X16650Y-7250D01*
X23700Y-3500D02*Y-9500D01*
X22950D02*X23700Y-8750D01*
X21450Y-9500D02*X22950D01*
X20700Y-8750D02*X21450Y-9500D01*
X20700Y-7250D02*Y-8750D01*
Y-7250D02*X21450Y-6500D01*
X22950D01*
X23700Y-7250D01*
X28200D02*Y-8750D01*
Y-7250D02*X28950Y-6500D01*
X30450D01*
X31200Y-7250D01*
Y-8750D01*
X30450Y-9500D02*X31200Y-8750D01*
X28950Y-9500D02*X30450D01*
X28200Y-8750D02*X28950Y-9500D01*
X33000Y-6500D02*Y-8750D01*
X33750Y-9500D01*
X35250D01*
X36000Y-8750D01*
Y-6500D02*Y-8750D01*
X38550Y-3500D02*Y-8750D01*
X39300Y-9500D01*
X37800Y-5750D02*X39300D01*
X40800Y-3500D02*Y-8750D01*
X41550Y-9500D01*
G54D27*X43050Y-5000D02*Y-5150D01*
G54D26*Y-7250D02*Y-9500D01*
X45300Y-7250D02*Y-9500D01*
Y-7250D02*X46050Y-6500D01*
X46800D01*
X47550Y-7250D01*
Y-9500D01*
X44550Y-6500D02*X45300Y-7250D01*
X50100Y-9500D02*X52350D01*
X49350Y-8750D02*X50100Y-9500D01*
X49350Y-7250D02*Y-8750D01*
Y-7250D02*X50100Y-6500D01*
X51600D01*
X52350Y-7250D01*
X49350Y-8000D02*X52350D01*
Y-7250D02*Y-8000D01*
G54D27*X56850Y-5000D02*Y-5150D01*
G54D26*Y-7250D02*Y-9500D01*
X59100D02*X61350D01*
X62100Y-8750D01*
X61350Y-8000D02*X62100Y-8750D01*
X59100Y-8000D02*X61350D01*
X58350Y-7250D02*X59100Y-8000D01*
X58350Y-7250D02*X59100Y-6500D01*
X61350D01*
X62100Y-7250D01*
X58350Y-8750D02*X59100Y-9500D01*
X67350Y-3500D02*Y-8750D01*
X68100Y-9500D01*
X66600Y-5750D02*X68100D01*
X69600Y-3500D02*Y-9500D01*
Y-7250D02*X70350Y-6500D01*
X71850D01*
X72600Y-7250D01*
Y-9500D01*
X75150D02*X77400D01*
X74400Y-8750D02*X75150Y-9500D01*
X74400Y-7250D02*Y-8750D01*
Y-7250D02*X75150Y-6500D01*
X76650D01*
X77400Y-7250D01*
X74400Y-8000D02*X77400D01*
Y-7250D02*Y-8000D01*
X82650Y-6500D02*X84900D01*
X81900Y-7250D02*X82650Y-6500D01*
X81900Y-7250D02*Y-8750D01*
X82650Y-9500D01*
X84900D01*
X87450D02*X89700D01*
X86700Y-8750D02*X87450Y-9500D01*
X86700Y-7250D02*Y-8750D01*
Y-7250D02*X87450Y-6500D01*
X88950D01*
X89700Y-7250D01*
X86700Y-8000D02*X89700D01*
Y-7250D02*Y-8000D01*
X92250Y-7250D02*Y-9500D01*
Y-7250D02*X93000Y-6500D01*
X93750D01*
X94500Y-7250D01*
Y-9500D01*
X91500Y-6500D02*X92250Y-7250D01*
X97050Y-3500D02*Y-8750D01*
X97800Y-9500D01*
X96300Y-5750D02*X97800D01*
X100050Y-9500D02*X102300D01*
X99300Y-8750D02*X100050Y-9500D01*
X99300Y-7250D02*Y-8750D01*
Y-7250D02*X100050Y-6500D01*
X101550D01*
X102300Y-7250D01*
X99300Y-8000D02*X102300D01*
Y-7250D02*Y-8000D01*
X104850Y-7250D02*Y-9500D01*
Y-7250D02*X105600Y-6500D01*
X107100D01*
X104100D02*X104850Y-7250D01*
X108900Y-3500D02*Y-8750D01*
X109650Y-9500D01*
G54D27*X111150Y-5000D02*Y-5150D01*
G54D26*Y-7250D02*Y-9500D01*
X113400Y-7250D02*Y-9500D01*
Y-7250D02*X114150Y-6500D01*
X114900D01*
X115650Y-7250D01*
Y-9500D01*
X112650Y-6500D02*X113400Y-7250D01*
X118200Y-9500D02*X120450D01*
X117450Y-8750D02*X118200Y-9500D01*
X117450Y-7250D02*Y-8750D01*
Y-7250D02*X118200Y-6500D01*
X119700D01*
X120450Y-7250D01*
X117450Y-8000D02*X120450D01*
Y-7250D02*Y-8000D01*
X124950Y-7250D02*Y-8750D01*
Y-7250D02*X125700Y-6500D01*
X127200D01*
X127950Y-7250D01*
Y-8750D01*
X127200Y-9500D02*X127950Y-8750D01*
X125700Y-9500D02*X127200D01*
X124950Y-8750D02*X125700Y-9500D01*
X130500Y-4250D02*Y-9500D01*
Y-4250D02*X131250Y-3500D01*
X132000D01*
X129750Y-6500D02*X131250D01*
X136950Y-3500D02*Y-8750D01*
X137700Y-9500D01*
X136200Y-5750D02*X137700D01*
X139200Y-3500D02*Y-9500D01*
Y-7250D02*X139950Y-6500D01*
X141450D01*
X142200Y-7250D01*
Y-9500D01*
G54D27*X144000Y-5000D02*Y-5150D01*
G54D26*Y-7250D02*Y-9500D01*
X146250D02*X148500D01*
X149250Y-8750D01*
X148500Y-8000D02*X149250Y-8750D01*
X146250Y-8000D02*X148500D01*
X145500Y-7250D02*X146250Y-8000D01*
X145500Y-7250D02*X146250Y-6500D01*
X148500D01*
X149250Y-7250D01*
X145500Y-8750D02*X146250Y-9500D01*
X153750Y-8750D02*X154500Y-9500D01*
X153750Y-7550D02*Y-8750D01*
Y-7550D02*X154800Y-6500D01*
X155700D01*
X156750Y-7550D01*
Y-8750D01*
X156000Y-9500D02*X156750Y-8750D01*
X154500Y-9500D02*X156000D01*
X153750Y-5450D02*X154800Y-6500D01*
X153750Y-4250D02*Y-5450D01*
Y-4250D02*X154500Y-3500D01*
X156000D01*
X156750Y-4250D01*
Y-5450D01*
X155700Y-6500D02*X156750Y-5450D01*
X158550Y-9500D02*X159300D01*
X161100Y-8750D02*X161850Y-9500D01*
X161100Y-4250D02*Y-8750D01*
Y-4250D02*X161850Y-3500D01*
X163350D01*
X164100Y-4250D01*
Y-8750D01*
X163350Y-9500D02*X164100Y-8750D01*
X161850Y-9500D02*X163350D01*
X161100Y-8000D02*X164100Y-5000D01*
X165900Y-8750D02*X166650Y-9500D01*
X165900Y-4250D02*Y-8750D01*
Y-4250D02*X166650Y-3500D01*
X168150D01*
X168900Y-4250D01*
Y-8750D01*
X168150Y-9500D02*X168900Y-8750D01*
X166650Y-9500D02*X168150D01*
X165900Y-8000D02*X168900Y-5000D01*
X170700Y-8750D02*X171450Y-9500D01*
X170700Y-4250D02*Y-8750D01*
Y-4250D02*X171450Y-3500D01*
X172950D01*
X173700Y-4250D01*
Y-8750D01*
X172950Y-9500D02*X173700Y-8750D01*
X171450Y-9500D02*X172950D01*
X170700Y-8000D02*X173700Y-5000D01*
X175500Y-8750D02*X176250Y-9500D01*
X175500Y-4250D02*Y-8750D01*
Y-4250D02*X176250Y-3500D01*
X177750D01*
X178500Y-4250D01*
Y-8750D01*
X177750Y-9500D02*X178500Y-8750D01*
X176250Y-9500D02*X177750D01*
X175500Y-8000D02*X178500Y-5000D01*
X180300Y-8750D02*X181050Y-9500D01*
X180300Y-4250D02*Y-8750D01*
Y-4250D02*X181050Y-3500D01*
X182550D01*
X183300Y-4250D01*
Y-8750D01*
X182550Y-9500D02*X183300Y-8750D01*
X181050Y-9500D02*X182550D01*
X180300Y-8000D02*X183300Y-5000D01*
X185100Y-8750D02*X185850Y-9500D01*
X185100Y-4250D02*Y-8750D01*
Y-4250D02*X185850Y-3500D01*
X187350D01*
X188100Y-4250D01*
Y-8750D01*
X187350Y-9500D02*X188100Y-8750D01*
X185850Y-9500D02*X187350D01*
X185100Y-8000D02*X188100Y-5000D01*
X193350Y-7250D02*Y-9500D01*
Y-7250D02*X194100Y-6500D01*
X194850D01*
X195600Y-7250D01*
Y-9500D01*
Y-7250D02*X196350Y-6500D01*
X197100D01*
X197850Y-7250D01*
Y-9500D01*
X192600Y-6500D02*X193350Y-7250D01*
G54D27*X199650Y-5000D02*Y-5150D01*
G54D26*Y-7250D02*Y-9500D01*
X201150Y-3500D02*Y-8750D01*
X201900Y-9500D01*
X206850Y-7250D02*Y-9500D01*
Y-7250D02*X207600Y-6500D01*
X209100D01*
X206100D02*X206850Y-7250D01*
X211650Y-9500D02*X213900D01*
X210900Y-8750D02*X211650Y-9500D01*
X210900Y-7250D02*Y-8750D01*
Y-7250D02*X211650Y-6500D01*
X213150D01*
X213900Y-7250D01*
X210900Y-8000D02*X213900D01*
Y-7250D02*Y-8000D01*
X216450Y-6500D02*X218700D01*
X215700Y-7250D02*X216450Y-6500D01*
X215700Y-7250D02*Y-8750D01*
X216450Y-9500D01*
X218700D01*
X221250Y-3500D02*Y-8750D01*
X222000Y-9500D01*
X220500Y-5750D02*X222000D01*
X225750Y-6500D02*X226500Y-7250D01*
X224250Y-6500D02*X225750D01*
X223500Y-7250D02*X224250Y-6500D01*
X223500Y-7250D02*Y-8750D01*
X224250Y-9500D01*
X226500Y-6500D02*Y-8750D01*
X227250Y-9500D01*
X224250D02*X225750D01*
X226500Y-8750D01*
X229800Y-7250D02*Y-9500D01*
Y-7250D02*X230550Y-6500D01*
X231300D01*
X232050Y-7250D01*
Y-9500D01*
X229050Y-6500D02*X229800Y-7250D01*
X236100Y-6500D02*X236850Y-7250D01*
X234600Y-6500D02*X236100D01*
X233850Y-7250D02*X234600Y-6500D01*
X233850Y-7250D02*Y-8750D01*
X234600Y-9500D01*
X236100D01*
X236850Y-8750D01*
X233850Y-11000D02*X234600Y-11750D01*
X236100D01*
X236850Y-11000D01*
Y-6500D02*Y-11000D01*
X238650Y-3500D02*Y-8750D01*
X239400Y-9500D01*
X241650D02*X243900D01*
X240900Y-8750D02*X241650Y-9500D01*
X240900Y-7250D02*Y-8750D01*
Y-7250D02*X241650Y-6500D01*
X243150D01*
X243900Y-7250D01*
X240900Y-8000D02*X243900D01*
Y-7250D02*Y-8000D01*
X248400Y-6500D02*X251400D01*
X255900Y-8750D02*X256650Y-9500D01*
X255900Y-4250D02*Y-8750D01*
Y-4250D02*X256650Y-3500D01*
X258150D01*
X258900Y-4250D01*
Y-8750D01*
X258150Y-9500D02*X258900Y-8750D01*
X256650Y-9500D02*X258150D01*
X255900Y-8000D02*X258900Y-5000D01*
X260700Y-11000D02*X262200Y-9500D01*
X264000Y-8750D02*X264750Y-9500D01*
X264000Y-4250D02*Y-8750D01*
Y-4250D02*X264750Y-3500D01*
X266250D01*
X267000Y-4250D01*
Y-8750D01*
X266250Y-9500D02*X267000Y-8750D01*
X264750Y-9500D02*X266250D01*
X264000Y-8000D02*X267000Y-5000D01*
X272250Y-3500D02*Y-8750D01*
X273000Y-9500D01*
X271500Y-5750D02*X273000D01*
X274500Y-7250D02*Y-8750D01*
Y-7250D02*X275250Y-6500D01*
X276750D01*
X277500Y-7250D01*
Y-8750D01*
X276750Y-9500D02*X277500Y-8750D01*
X275250Y-9500D02*X276750D01*
X274500Y-8750D02*X275250Y-9500D01*
X282750D02*X285000Y-6500D01*
Y-4250D02*Y-6500D01*
X284250Y-3500D02*X285000Y-4250D01*
X282750Y-3500D02*X284250D01*
X282000Y-4250D02*X282750Y-3500D01*
X282000Y-4250D02*Y-5750D01*
X282750Y-6500D01*
X285000D01*
X287550Y-9500D02*X290550Y-3500D01*
X286800D02*X290550D01*
X294600D02*X295350Y-4250D01*
X293100Y-3500D02*X294600D01*
X292350Y-4250D02*X293100Y-3500D01*
X292350Y-4250D02*Y-8750D01*
X293100Y-9500D01*
X294600Y-6200D02*X295350Y-6950D01*
X292350Y-6200D02*X294600D01*
X293100Y-9500D02*X294600D01*
X295350Y-8750D01*
Y-6950D02*Y-8750D01*
X297150Y-9500D02*X297900D01*
X299700Y-4700D02*X300900Y-3500D01*
Y-9500D01*
X299700D02*X301950D01*
X303750Y-7250D02*X306750Y-3500D01*
X303750Y-7250D02*X307500D01*
X306750Y-3500D02*Y-9500D01*
X309300Y-8750D02*X310050Y-9500D01*
X309300Y-4250D02*Y-8750D01*
Y-4250D02*X310050Y-3500D01*
X311550D01*
X312300Y-4250D01*
Y-8750D01*
X311550Y-9500D02*X312300Y-8750D01*
X310050Y-9500D02*X311550D01*
X309300Y-8000D02*X312300Y-5000D01*
X314100Y-8750D02*X314850Y-9500D01*
X314100Y-4250D02*Y-8750D01*
Y-4250D02*X314850Y-3500D01*
X316350D01*
X317100Y-4250D01*
Y-8750D01*
X316350Y-9500D02*X317100Y-8750D01*
X314850Y-9500D02*X316350D01*
X314100Y-8000D02*X317100Y-5000D01*
X318900Y-8750D02*X319650Y-9500D01*
X318900Y-4250D02*Y-8750D01*
Y-4250D02*X319650Y-3500D01*
X321150D01*
X321900Y-4250D01*
Y-8750D01*
X321150Y-9500D02*X321900Y-8750D01*
X319650Y-9500D02*X321150D01*
X318900Y-8000D02*X321900Y-5000D01*
X323700Y-8750D02*X324450Y-9500D01*
X323700Y-4250D02*Y-8750D01*
Y-4250D02*X324450Y-3500D01*
X325950D01*
X326700Y-4250D01*
Y-8750D01*
X325950Y-9500D02*X326700Y-8750D01*
X324450Y-9500D02*X325950D01*
X323700Y-8000D02*X326700Y-5000D01*
X328500Y-11000D02*X330000Y-9500D01*
X331800Y-8750D02*X332550Y-9500D01*
X331800Y-7550D02*Y-8750D01*
Y-7550D02*X332850Y-6500D01*
X333750D01*
X334800Y-7550D01*
Y-8750D01*
X334050Y-9500D02*X334800Y-8750D01*
X332550Y-9500D02*X334050D01*
X331800Y-5450D02*X332850Y-6500D01*
X331800Y-4250D02*Y-5450D01*
Y-4250D02*X332550Y-3500D01*
X334050D01*
X334800Y-4250D01*
Y-5450D01*
X333750Y-6500D02*X334800Y-5450D01*
X337350Y-9500D02*X339600Y-6500D01*
Y-4250D02*Y-6500D01*
X338850Y-3500D02*X339600Y-4250D01*
X337350Y-3500D02*X338850D01*
X336600Y-4250D02*X337350Y-3500D01*
X336600Y-4250D02*Y-5750D01*
X337350Y-6500D01*
X339600D01*
X341400Y-8750D02*X342150Y-9500D01*
X341400Y-7550D02*Y-8750D01*
Y-7550D02*X342450Y-6500D01*
X343350D01*
X344400Y-7550D01*
Y-8750D01*
X343650Y-9500D02*X344400Y-8750D01*
X342150Y-9500D02*X343650D01*
X341400Y-5450D02*X342450Y-6500D01*
X341400Y-4250D02*Y-5450D01*
Y-4250D02*X342150Y-3500D01*
X343650D01*
X344400Y-4250D01*
Y-5450D01*
X343350Y-6500D02*X344400Y-5450D01*
X346200Y-9500D02*X346950D01*
X348750Y-8750D02*X349500Y-9500D01*
X348750Y-4250D02*Y-8750D01*
Y-4250D02*X349500Y-3500D01*
X351000D01*
X351750Y-4250D01*
Y-8750D01*
X351000Y-9500D02*X351750Y-8750D01*
X349500Y-9500D02*X351000D01*
X348750Y-8000D02*X351750Y-5000D01*
X353550Y-8750D02*X354300Y-9500D01*
X353550Y-4250D02*Y-8750D01*
Y-4250D02*X354300Y-3500D01*
X355800D01*
X356550Y-4250D01*
Y-8750D01*
X355800Y-9500D02*X356550Y-8750D01*
X354300Y-9500D02*X355800D01*
X353550Y-8000D02*X356550Y-5000D01*
X358350Y-8750D02*X359100Y-9500D01*
X358350Y-4250D02*Y-8750D01*
Y-4250D02*X359100Y-3500D01*
X360600D01*
X361350Y-4250D01*
Y-8750D01*
X360600Y-9500D02*X361350Y-8750D01*
X359100Y-9500D02*X360600D01*
X358350Y-8000D02*X361350Y-5000D01*
X363150Y-8750D02*X363900Y-9500D01*
X363150Y-4250D02*Y-8750D01*
Y-4250D02*X363900Y-3500D01*
X365400D01*
X366150Y-4250D01*
Y-8750D01*
X365400Y-9500D02*X366150Y-8750D01*
X363900Y-9500D02*X365400D01*
X363150Y-8000D02*X366150Y-5000D01*
X367950Y-8750D02*X368700Y-9500D01*
X367950Y-4250D02*Y-8750D01*
Y-4250D02*X368700Y-3500D01*
X370200D01*
X370950Y-4250D01*
Y-8750D01*
X370200Y-9500D02*X370950Y-8750D01*
X368700Y-9500D02*X370200D01*
X367950Y-8000D02*X370950Y-5000D01*
X372750Y-8750D02*X373500Y-9500D01*
X372750Y-4250D02*Y-8750D01*
Y-4250D02*X373500Y-3500D01*
X375000D01*
X375750Y-4250D01*
Y-8750D01*
X375000Y-9500D02*X375750Y-8750D01*
X373500Y-9500D02*X375000D01*
X372750Y-8000D02*X375750Y-5000D01*
X381000Y-7250D02*Y-9500D01*
Y-7250D02*X381750Y-6500D01*
X382500D01*
X383250Y-7250D01*
Y-9500D01*
Y-7250D02*X384000Y-6500D01*
X384750D01*
X385500Y-7250D01*
Y-9500D01*
X380250Y-6500D02*X381000Y-7250D01*
G54D27*X387300Y-5000D02*Y-5150D01*
G54D26*Y-7250D02*Y-9500D01*
X388800Y-3500D02*Y-8750D01*
X389550Y-9500D01*
X391800D02*X394050D01*
X394800Y-8750D01*
X394050Y-8000D02*X394800Y-8750D01*
X391800Y-8000D02*X394050D01*
X391050Y-7250D02*X391800Y-8000D01*
X391050Y-7250D02*X391800Y-6500D01*
X394050D01*
X394800Y-7250D01*
X391050Y-8750D02*X391800Y-9500D01*
X200750Y118300D02*Y112300D01*
X202700Y118300D02*X203750Y117250D01*
Y113350D01*
X202700Y112300D02*X203750Y113350D01*
X200000Y112300D02*X202700D01*
X200000Y118300D02*X202700D01*
X207800Y115300D02*X208550Y114550D01*
X206300Y115300D02*X207800D01*
X205550Y114550D02*X206300Y115300D01*
X205550Y114550D02*Y113050D01*
X206300Y112300D01*
X208550Y115300D02*Y113050D01*
X209300Y112300D01*
X206300D02*X207800D01*
X208550Y113050D01*
X211850Y118300D02*Y113050D01*
X212600Y112300D01*
X211100Y116050D02*X212600D01*
X214850Y112300D02*X217100D01*
X214100Y113050D02*X214850Y112300D01*
X214100Y114550D02*Y113050D01*
Y114550D02*X214850Y115300D01*
X216350D01*
X217100Y114550D01*
X214100Y113800D02*X217100D01*
Y114550D02*Y113800D01*
X218900Y116050D02*X219650D01*
X218900Y114550D02*X219650D01*
X224150Y118300D02*X227150D01*
X225650D02*Y112300D01*
X228950Y118300D02*Y112300D01*
Y114550D02*X229700Y115300D01*
X231200D01*
X231950Y114550D01*
Y112300D01*
X233750Y115300D02*Y113050D01*
X234500Y112300D01*
X236000D01*
X236750Y113050D01*
Y115300D02*Y113050D01*
X241250D02*X242000Y112300D01*
X241250Y117550D02*Y113050D01*
Y117550D02*X242000Y118300D01*
X243500D01*
X244250Y117550D01*
Y113050D01*
X243500Y112300D02*X244250Y113050D01*
X242000Y112300D02*X243500D01*
X241250Y113800D02*X244250Y116800D01*
X246800Y112300D02*X249050Y115300D01*
Y117550D02*Y115300D01*
X248300Y118300D02*X249050Y117550D01*
X246800Y118300D02*X248300D01*
X246050Y117550D02*X246800Y118300D01*
X246050Y117550D02*Y116050D01*
X246800Y115300D01*
X249050D01*
X254600Y118300D02*X255800D01*
Y113050D01*
X255050Y112300D02*X255800Y113050D01*
X254300Y112300D02*X255050D01*
X253550Y113050D02*X254300Y112300D01*
X253550Y113800D02*Y113050D01*
X257600Y115300D02*Y113050D01*
X258350Y112300D01*
X259850D01*
X260600Y113050D01*
Y115300D02*Y113050D01*
X263150Y114550D02*Y112300D01*
Y114550D02*X263900Y115300D01*
X264650D01*
X265400Y114550D01*
Y112300D01*
X262400Y115300D02*X263150Y114550D01*
X269900Y117550D02*X270650Y118300D01*
X272900D01*
X273650Y117550D01*
Y116050D01*
X269900Y112300D02*X273650Y116050D01*
X269900Y112300D02*X273650D01*
X275450Y113050D02*X276200Y112300D01*
X275450Y117550D02*Y113050D01*
Y117550D02*X276200Y118300D01*
X277700D01*
X278450Y117550D01*
Y113050D01*
X277700Y112300D02*X278450Y113050D01*
X276200Y112300D02*X277700D01*
X275450Y113800D02*X278450Y116800D01*
X280250Y117100D02*X281450Y118300D01*
Y112300D01*
X280250D02*X282500D01*
X286550Y118300D02*X287300Y117550D01*
X285050Y118300D02*X286550D01*
X284300Y117550D02*X285050Y118300D01*
X284300Y117550D02*Y113050D01*
X285050Y112300D01*
X286550Y115600D02*X287300Y114850D01*
X284300Y115600D02*X286550D01*
X285050Y112300D02*X286550D01*
X287300Y113050D01*
Y114850D02*Y113050D01*
X291800Y117100D02*X293000Y118300D01*
Y112300D01*
X291800D02*X294050D01*
X295850Y117550D02*X296600Y118300D01*
X298850D01*
X299600Y117550D01*
Y116050D01*
X295850Y112300D02*X299600Y116050D01*
X295850Y112300D02*X299600D01*
X301400Y116050D02*X302150D01*
X301400Y114550D02*X302150D01*
X303950Y118300D02*X306950D01*
X303950D02*Y115300D01*
X304700Y116050D01*
X306200D01*
X306950Y115300D01*
Y113050D01*
X306200Y112300D02*X306950Y113050D01*
X304700Y112300D02*X306200D01*
X303950Y113050D02*X304700Y112300D01*
X308750Y114550D02*X311750Y118300D01*
X308750Y114550D02*X312500D01*
X311750Y118300D02*Y112300D01*
X314300Y116050D02*X315050D01*
X314300Y114550D02*X315050D01*
X316850Y118300D02*X319850D01*
X316850D02*Y115300D01*
X317600Y116050D01*
X319100D01*
X319850Y115300D01*
Y113050D01*
X319100Y112300D02*X319850Y113050D01*
X317600Y112300D02*X319100D01*
X316850Y113050D02*X317600Y112300D01*
X321650Y113050D02*X322400Y112300D01*
X321650Y117550D02*Y113050D01*
Y117550D02*X322400Y118300D01*
X323900D01*
X324650Y117550D01*
Y113050D01*
X323900Y112300D02*X324650Y113050D01*
X322400Y112300D02*X323900D01*
X321650Y113800D02*X324650Y116800D01*
X329150D02*Y112300D01*
Y116800D02*X330200Y118300D01*
X331850D01*
X332900Y116800D01*
Y112300D01*
X329150Y115300D02*X332900D01*
X334700Y118300D02*Y112300D01*
Y118300D02*X336950Y115300D01*
X339200Y118300D01*
Y112300D01*
X346700Y118300D02*X347450Y117550D01*
X344450Y118300D02*X346700D01*
X343700Y117550D02*X344450Y118300D01*
X343700Y117550D02*Y113050D01*
X344450Y112300D01*
X346700D01*
X347450Y113050D01*
Y114550D02*Y113050D01*
X346700Y115300D02*X347450Y114550D01*
X345200Y115300D02*X346700D01*
X349250Y118300D02*Y112300D01*
Y118300D02*X351500Y115300D01*
X353750Y118300D01*
Y112300D01*
X355550Y118300D02*X358550D01*
X357050D02*Y112300D01*
X363050Y118300D02*Y113050D01*
X363800Y112300D01*
X365300D01*
X366050Y113050D01*
Y118300D02*Y113050D01*
X367850Y118300D02*X370850D01*
X369350D02*Y112300D01*
X373700D02*X375650D01*
X372650Y113350D02*X373700Y112300D01*
X372650Y117250D02*Y113350D01*
Y117250D02*X373700Y118300D01*
X375650D01*
X200000Y131800D02*Y127300D01*
Y131800D02*X201050Y133300D01*
X202700D01*
X203750Y131800D01*
Y127300D01*
X200000Y130300D02*X203750D01*
X205550D02*Y128050D01*
X206300Y127300D01*
X207800D01*
X208550Y128050D01*
Y130300D02*Y128050D01*
X211100Y133300D02*Y128050D01*
X211850Y127300D01*
X210350Y131050D02*X211850D01*
X213350Y133300D02*Y127300D01*
Y129550D02*X214100Y130300D01*
X215600D01*
X216350Y129550D01*
Y127300D01*
X218150Y129550D02*Y128050D01*
Y129550D02*X218900Y130300D01*
X220400D01*
X221150Y129550D01*
Y128050D01*
X220400Y127300D02*X221150Y128050D01*
X218900Y127300D02*X220400D01*
X218150Y128050D02*X218900Y127300D01*
X223700Y129550D02*Y127300D01*
Y129550D02*X224450Y130300D01*
X225950D01*
X222950D02*X223700Y129550D01*
X227750Y131050D02*X228500D01*
X227750Y129550D02*X228500D01*
X233000Y133300D02*Y127300D01*
Y133300D02*X235250Y130300D01*
X237500Y133300D01*
Y127300D01*
G54D27*X239300Y131800D02*Y131650D01*
G54D26*Y129550D02*Y127300D01*
X241550Y130300D02*X243800D01*
X240800Y129550D02*X241550Y130300D01*
X240800Y129550D02*Y128050D01*
X241550Y127300D01*
X243800D01*
X245600Y133300D02*Y127300D01*
Y129550D02*X246350Y130300D01*
X247850D01*
X248600Y129550D01*
Y127300D01*
X252650Y130300D02*X253400Y129550D01*
X251150Y130300D02*X252650D01*
X250400Y129550D02*X251150Y130300D01*
X250400Y129550D02*Y128050D01*
X251150Y127300D01*
X253400Y130300D02*Y128050D01*
X254150Y127300D01*
X251150D02*X252650D01*
X253400Y128050D01*
X256700Y127300D02*X258950D01*
X255950Y128050D02*X256700Y127300D01*
X255950Y129550D02*Y128050D01*
Y129550D02*X256700Y130300D01*
X258200D01*
X258950Y129550D01*
X255950Y128800D02*X258950D01*
Y129550D02*Y128800D01*
X260750Y133300D02*Y128050D01*
X261500Y127300D01*
X266450Y133300D02*Y127300D01*
X265700Y133300D02*X268700D01*
X269450Y132550D01*
Y131050D01*
X268700Y130300D02*X269450Y131050D01*
X266450Y130300D02*X268700D01*
X272000Y127300D02*X274250D01*
X271250Y128050D02*X272000Y127300D01*
X271250Y129550D02*Y128050D01*
Y129550D02*X272000Y130300D01*
X273500D01*
X274250Y129550D01*
X271250Y128800D02*X274250D01*
Y129550D02*Y128800D01*
X276800Y133300D02*Y128050D01*
X277550Y127300D01*
X276050Y131050D02*X277550D01*
X279800Y127300D02*X282050D01*
X279050Y128050D02*X279800Y127300D01*
X279050Y129550D02*Y128050D01*
Y129550D02*X279800Y130300D01*
X281300D01*
X282050Y129550D01*
X279050Y128800D02*X282050D01*
Y129550D02*Y128800D01*
X284600Y129550D02*Y127300D01*
Y129550D02*X285350Y130300D01*
X286850D01*
X283850D02*X284600Y129550D01*
X289400Y127300D02*X291650D01*
X292400Y128050D01*
X291650Y128800D02*X292400Y128050D01*
X289400Y128800D02*X291650D01*
X288650Y129550D02*X289400Y128800D01*
X288650Y129550D02*X289400Y130300D01*
X291650D01*
X292400Y129550D01*
X288650Y128050D02*X289400Y127300D01*
X294950D02*X297200D01*
X294200Y128050D02*X294950Y127300D01*
X294200Y129550D02*Y128050D01*
Y129550D02*X294950Y130300D01*
X296450D01*
X297200Y129550D01*
X294200Y128800D02*X297200D01*
Y129550D02*Y128800D01*
X299750Y129550D02*Y127300D01*
Y129550D02*X300500Y130300D01*
X301250D01*
X302000Y129550D01*
Y127300D01*
X299000Y130300D02*X299750Y129550D01*
X200000Y148300D02*X203000D01*
X201500D02*Y142300D01*
G54D27*X204800Y146800D02*Y146650D01*
G54D26*Y144550D02*Y142300D01*
X207050Y148300D02*Y143050D01*
X207800Y142300D01*
X206300Y146050D02*X207800D01*
X209300Y148300D02*Y143050D01*
X210050Y142300D01*
X212300D02*X214550D01*
X211550Y143050D02*X212300Y142300D01*
X211550Y144550D02*Y143050D01*
Y144550D02*X212300Y145300D01*
X213800D01*
X214550Y144550D01*
X211550Y143800D02*X214550D01*
Y144550D02*Y143800D01*
X216350Y146050D02*X217100D01*
X216350Y144550D02*X217100D01*
X221600Y143050D02*X222350Y142300D01*
X221600Y147550D02*X222350Y148300D01*
X221600Y147550D02*Y143050D01*
X224150Y145300D02*Y143050D01*
X224900Y142300D01*
X226400D01*
X227150Y143050D01*
Y145300D02*Y143050D01*
X229700Y144550D02*Y142300D01*
Y144550D02*X230450Y145300D01*
X231200D01*
X231950Y144550D01*
Y142300D01*
X228950Y145300D02*X229700Y144550D01*
X233750Y148300D02*Y142300D01*
Y144550D02*X236000Y142300D01*
X233750Y144550D02*X235250Y146050D01*
X238550Y144550D02*Y142300D01*
Y144550D02*X239300Y145300D01*
X240050D01*
X240800Y144550D01*
Y142300D01*
X237800Y145300D02*X238550Y144550D01*
X242600D02*Y143050D01*
Y144550D02*X243350Y145300D01*
X244850D01*
X245600Y144550D01*
Y143050D01*
X244850Y142300D02*X245600Y143050D01*
X243350Y142300D02*X244850D01*
X242600Y143050D02*X243350Y142300D01*
X247400Y145300D02*Y143050D01*
X248150Y142300D01*
X248900D01*
X249650Y143050D01*
Y145300D02*Y143050D01*
X250400Y142300D01*
X251150D01*
X251900Y143050D01*
Y145300D02*Y143050D01*
X254450Y144550D02*Y142300D01*
Y144550D02*X255200Y145300D01*
X255950D01*
X256700Y144550D01*
Y142300D01*
X253700Y145300D02*X254450Y144550D01*
X258500Y148300D02*X259250Y147550D01*
Y143050D01*
X258500Y142300D02*X259250Y143050D01*
X263750Y145300D02*X266750D01*
X271250Y148300D02*Y142300D01*
Y148300D02*X274250D01*
X271250Y145600D02*X273500D01*
X278300Y145300D02*X279050Y144550D01*
X276800Y145300D02*X278300D01*
X276050Y144550D02*X276800Y145300D01*
X276050Y144550D02*Y143050D01*
X276800Y142300D01*
X279050Y145300D02*Y143050D01*
X279800Y142300D01*
X276800D02*X278300D01*
X279050Y143050D01*
X281600Y148300D02*Y142300D01*
Y143050D02*X282350Y142300D01*
X283850D01*
X284600Y143050D01*
Y144550D02*Y143050D01*
X283850Y145300D02*X284600Y144550D01*
X282350Y145300D02*X283850D01*
X281600Y144550D02*X282350Y145300D01*
X287150Y144550D02*Y142300D01*
Y144550D02*X287900Y145300D01*
X289400D01*
X286400D02*X287150Y144550D01*
G54D27*X291200Y146800D02*Y146650D01*
G54D26*Y144550D02*Y142300D01*
X293450Y145300D02*X295700D01*
X292700Y144550D02*X293450Y145300D01*
X292700Y144550D02*Y143050D01*
X293450Y142300D01*
X295700D01*
X299750Y145300D02*X300500Y144550D01*
X298250Y145300D02*X299750D01*
X297500Y144550D02*X298250Y145300D01*
X297500Y144550D02*Y143050D01*
X298250Y142300D01*
X300500Y145300D02*Y143050D01*
X301250Y142300D01*
X298250D02*X299750D01*
X300500Y143050D01*
X303800Y148300D02*Y143050D01*
X304550Y142300D01*
X303050Y146050D02*X304550D01*
G54D27*X306050Y146800D02*Y146650D01*
G54D26*Y144550D02*Y142300D01*
X307550Y144550D02*Y143050D01*
Y144550D02*X308300Y145300D01*
X309800D01*
X310550Y144550D01*
Y143050D01*
X309800Y142300D02*X310550Y143050D01*
X308300Y142300D02*X309800D01*
X307550Y143050D02*X308300Y142300D01*
X313100Y144550D02*Y142300D01*
Y144550D02*X313850Y145300D01*
X314600D01*
X315350Y144550D01*
Y142300D01*
X312350Y145300D02*X313100Y144550D01*
X320600Y148300D02*Y142300D01*
X322550Y148300D02*X323600Y147250D01*
Y143350D01*
X322550Y142300D02*X323600Y143350D01*
X319850Y142300D02*X322550D01*
X319850Y148300D02*X322550D01*
X326150Y144550D02*Y142300D01*
Y144550D02*X326900Y145300D01*
X328400D01*
X325400D02*X326150Y144550D01*
X332450Y145300D02*X333200Y144550D01*
X330950Y145300D02*X332450D01*
X330200Y144550D02*X330950Y145300D01*
X330200Y144550D02*Y143050D01*
X330950Y142300D01*
X333200Y145300D02*Y143050D01*
X333950Y142300D01*
X330950D02*X332450D01*
X333200Y143050D01*
X335750Y145300D02*Y143050D01*
X336500Y142300D01*
X337250D01*
X338000Y143050D01*
Y145300D02*Y143050D01*
X338750Y142300D01*
X339500D01*
X340250Y143050D01*
Y145300D02*Y143050D01*
G54D27*X342050Y146800D02*Y146650D01*
G54D26*Y144550D02*Y142300D01*
X344300Y144550D02*Y142300D01*
Y144550D02*X345050Y145300D01*
X345800D01*
X346550Y144550D01*
Y142300D01*
X343550Y145300D02*X344300Y144550D01*
X350600Y145300D02*X351350Y144550D01*
X349100Y145300D02*X350600D01*
X348350Y144550D02*X349100Y145300D01*
X348350Y144550D02*Y143050D01*
X349100Y142300D01*
X350600D01*
X351350Y143050D01*
X348350Y140800D02*X349100Y140050D01*
X350600D01*
X351350Y140800D01*
Y145300D02*Y140800D01*
M02*
