M48
INCH
T18C0.032
%
T18
X009211Y008030
X009211Y007243
X009211Y006455
X009211Y005668
X009211Y004880
X009211Y004093
X009211Y003306
X009211Y002518
X009211Y001731
X009211Y000943
X000550Y005668
X000550Y004880
X000550Y004093
X000550Y003306
X000550Y008030
X000550Y007243
X000550Y006455
X000550Y002518
X000550Y001731
X000550Y000943
M30
